<mxfile host="app.diagrams.net" modified="2021-03-03T22:07:55.845Z" agent="5.0 (Windows NT 10.0; Win64; x64) AppleWebKit/537.36 (KHTML, like Gecko) Chrome/88.0.4324.190 Safari/537.36" etag="sKhiKqK80uADzW9XITgB" version="14.4.3" type="github">
  <diagram id="dIDMiA5STwJxZv0E2CK2" name="Page-1">
    <mxGraphModel dx="732" dy="777" grid="1" gridSize="10" guides="1" tooltips="1" connect="1" arrows="1" fold="1" page="1" pageScale="1" pageWidth="827" pageHeight="1169" math="0" shadow="0">
      <root>
        <mxCell id="0" />
        <mxCell id="1" parent="0" />
        <mxCell id="U2HF0-nIiZB2bGeoBCWu-1" value="PRODUTOS" style="rounded=1;arcSize=10;whiteSpace=wrap;html=1;align=center;" vertex="1" parent="1">
          <mxGeometry x="90" y="90" width="100" height="40" as="geometry" />
        </mxCell>
        <mxCell id="U2HF0-nIiZB2bGeoBCWu-2" value="FORNECEDORES" style="rounded=1;arcSize=10;whiteSpace=wrap;html=1;align=center;" vertex="1" parent="1">
          <mxGeometry x="250" y="90" width="120" height="40" as="geometry" />
        </mxCell>
        <mxCell id="U2HF0-nIiZB2bGeoBCWu-3" value="FUNCIONARIOS" style="rounded=1;arcSize=10;whiteSpace=wrap;html=1;align=center;" vertex="1" parent="1">
          <mxGeometry x="414" y="90" width="120" height="40" as="geometry" />
        </mxCell>
        <mxCell id="U2HF0-nIiZB2bGeoBCWu-4" value="CLIENTES" style="rounded=1;arcSize=10;whiteSpace=wrap;html=1;align=center;" vertex="1" parent="1">
          <mxGeometry x="610" y="90" width="100" height="40" as="geometry" />
        </mxCell>
      </root>
    </mxGraphModel>
  </diagram>
</mxfile>
